<svg xmlns="http://www.w3.org/2000/svg" version="1.1" xmlns:xlink="http://www.w3.org/1999/xlink" viewBox="0 0 6.707151461843013 5.161673981259655"><g transform="matrix(0.8391952282509283,0,0,0.8391952282509283,2.355586830280253,2.1233749843586196)"><g><path d=" M -0.9084558895336193 0.4000872149237098 Q -0.8739159272277686 0.4088919643206338 -0.8480690920807302 0.42807811186664246 Q -0.8222222569336919 0.447264259412651 -0.8041686023312741 0.47428978568330993 Q -0.7861149477288564 0.5013153119539687 -0.7758498227444712 0.5351736101094127 Q -0.765584697760086 0.5690319082648564 -0.7626209994453962 0.6068237707909268 Q -0.7596573011307064 0.644615633316997 -0.7635172283905506 0.6854550663792659 Q -0.7673771556503949 0.7262944994415348 -0.7777498741180039 0.7669854139388385 Q -0.7905348526943593 0.8171393318076081 -0.8130843671557739 0.8660638649890646 Q -0.8356338816171885 0.9149883981705212 -0.8672706076539932 0.9570614002179159 Q -0.898907333690798 0.9991344022653106 -0.9394457008682487 1.032639541085918 Q -0.9799840680456996 1.0661446799065255 -1.0289276715622835 1.0861695343064568 Q -1.0778712750788673 1.1061943887063883 -1.1348536249916839 1.1103129013400583 Q -1.1918359749045007 1.1144314139737284 -1.2566575479990427 1.0979074322288163 Q -1.3290495237907574 1.0794536423969072 -1.383020888408379 1.0470513799881866 Q -1.4369922530260006 1.0146491175794663 -1.4744588617767627 0.9728489647715116 Q -1.5119254705275245 0.9310488119635569 -1.5343160757703223 0.8815021434197866 Q -1.5567066810131203 0.8319554748760163 -1.5658211759763379 0.7797463294452992 Q -1.5749356709395554 0.7275371840145821 -1.5722028079820887 0.674316936360337 Q -1.569469945024622 0.6210966887060918 -1.556805579453704 0.5714159210058953 Q -1.541608340768602 0.5117989997656598 -1.5137196086676799 0.46070823895584456 Q -1.4858308765667578 0.40961747814602945 -1.4488967912297372 0.37443771002906345 Q -1.411962705892717 0.33925794191209757 -1.3675419345371074 0.3241269049997032 Q -1.3231211631814979 0.30899586808730883 -1.2753329961555946 0.3211777816364777 Q -1.2564069894126626 0.3260023018539703 -1.2427738465862836 0.33577629513513063 Q -1.2291407037599047 0.3455502884162909 -1.2214451926736314 0.358849653328811 Q -1.2137496815873585 0.3721490182413312 -1.2117505762303171 0.3880274544480645 Q -1.2097514708732757 0.40390589065479787 -1.2139729260635816 0.42046614655486336 Q -1.2177119292321383 0.43513380178063554 -1.2261824340864282 0.44859532695203463 Q -1.234652938940718 0.46205685212343384 -1.2491491320544352 0.4724706512157092 Q -1.2636453251681525 0.48288445030798477 -1.2840419426092722 0.488770766312698 Q -1.3044385600503918 0.49465708231741123 -1.331556638224035 0.4942949322152492 Q -1.3510950118473295 0.49384937652035354 -1.368003309526868 0.5008768651501333 Q -1.3849116072064065 0.507904353779913 -1.3980486563171226 0.5189165669727872 Q -1.4111857054278387 0.5299287801656611 -1.4195355972766912 0.542917155168487 Q -1.4278854891255435 0.5559055301713128 -1.430780201256039 0.567261134217072 Q -1.4352428824572199 0.584767690454284 -1.4295467878138384 0.6078872468279941 Q -1.423850693170457 0.6310068032017042 -1.4057784348616873 0.654005902112902 Q -1.3877061765529177 0.6770050010240999 -1.3560609263775625 0.6971653544667831 Q -1.3244156762022072 0.7173257079094661 -1.2771006593448775 0.7293870084531976 Q -1.2146448370932021 0.7453079251709231 -1.1654649695781818 0.7510420049416338 Q -1.1162851020631614 0.7567760847123444 -1.0790916536376898 0.7551715304006558 Q -1.041898205212218 0.7535669760889672 -1.0155129513814496 0.745931927048338 Q -0.9891276975506812 0.7382968780077088 -0.9719642210805041 0.7273032685211867 Q -0.9548007446103269 0.7163096590346645 -0.945504552424328 0.7035625100427133 Q -0.9362083602383289 0.6908153610507621 -0.933193035102396 0.6789866068364296 Q -0.9294540319338394 0.6643189516106575 -0.9337261806878379 0.6534039412473557 Q -0.9379983294418364 0.6424889308840539 -0.9469881826447291 0.6401972837807449 Q -0.9744308924219803 0.6332017294653807 -0.9911999733897296 0.6357296405671261 Q -1.007969054357479 0.6382575516688717 -1.018661442416258 0.6456098274451846 Q -1.029353830475037 0.6529621032214975 -1.0357971688698324 0.6634131097264768 Q -1.0422405072646277 0.6738641162314561 -1.0491476939748203 0.6821812960512676 Q -1.056054880685013 0.690498475871079 -1.0657267091241627 0.6948355820543843 Q -1.0753985375633126 0.6991726882376895 -1.0919587934633779 0.6949512330473835 Q -1.1288645066120953 0.685543418623273 -1.1471826418583275 0.664497226889087 Q -1.1655007771045598 0.6434510351549009 -1.1709370420307146 0.6153587510845832 Q -1.1763733069568694 0.5872664670142655 -1.1717202488514318 0.5541876580105014 Q -1.167067190745994 0.5211088490067373 -1.1583830543545073 0.4870420368694598 Q -1.1442713327183416 0.43168346714638384 -1.1296635173665126 0.3971111038973423 Q -1.1150557020146838 0.3625387406483007 -1.0999888448169708 0.3439561247582539 Q -1.0849219876192575 0.32537350886820704 -1.0695630553040523 0.32047054507041917 Q -1.0542041229888468 0.3155675812726312 -1.038590167425928 0.3195478104520626 Q -1.0154058091658364 0.32545784771849096 -1.0027653203995586 0.3322073695534675 Q -0.9901248316332807 0.3389568913884442 -0.9828745651560532 0.3460960022563354 Q -0.9756242986788256 0.35323511312422673 -0.9711572776369072 0.36042057771507285 Q -0.9666902565949888 0.36760604230591876 -0.9601497153706211 0.37456423366565406 Q -0.9536091741462535 0.38152242502538947 -0.9419149857171223 0.3880307208494913 Q -0.930220797287991 0.39453901667359326 -0.9084558895336193 0.4000872149237098 M -0.29432434511049355 -0.4271204952877016 Q -0.2698190028609421 -0.4244787646460333 -0.2516237194479849 -0.4283742804042364 Q -0.23342843603502772 -0.43226979616243955 -0.22001380271815474 -0.43920055219910026 Q -0.20659916940128165 -0.44613130823576097 -0.19655991687999586 -0.4539707758128654 Q -0.18652066435871018 -0.4618102433899698 -0.1785458708554315 -0.4675567029748773 Q -0.17057107735215304 -0.47330316255978466 -0.16341189080930818 -0.47464263331155454 Q -0.15625270426646332 -0.4759821040633244 -0.14837971594354205 -0.46941257986054263 Q -0.12176151732795115 -0.4472013313654235 -0.11246216838778389 -0.4229070184213616 Q -0.10316281944761663 -0.39861270547729954 -0.1127489784979202 -0.36654720939067365 Q -0.12233513754822378 -0.33448171330404775 -0.15105881229774498 -0.2916755923451272 Q -0.1797824870472663 -0.24886947138620674 -0.22889750132520575 -0.19000951106722408 Q -0.25079591533447815 -0.16376621665748659 -0.2727812192092267 -0.1480885244461846 Q -0.2947665230839753 -0.13241083223488248 -0.31696534215002675 -0.12486062194106218 Q -0.3391641612160783 -0.11731041164724176 -0.3615777384163395 -0.1159808844387259 Q -0.3839913156166007 -0.11465135723021014 -0.40612060730520505 -0.11785420123775192 Q -0.4282498989938093 -0.1210570452452937 -0.45044001745951345 -0.12685442677671266 Q -0.4726301359252176 -0.1326518083081316 -0.4943820375221549 -0.13935541549418073 L -0.6298888553340729 -0.18883298197423748 L -0.633642869164234 -0.1843341315039968 Q -0.64365357271133 -0.17233719691668825 -0.6510672528487351 -0.16421468677083362 Q -0.6584809329861403 -0.15609217662497898 -0.6692414449449431 -0.14472091100936402 L -0.5886370406864637 -0.07746149655231305 Q -0.5725161598347678 -0.06400961366090291 -0.5597644450641254 -0.06100043647082165 Q -0.547012730293483 -0.05799125928074039 -0.5368828590780008 -0.06098552115594047 Q -0.5267529878625186 -0.06397978303114055 -0.5183089426304699 -0.07028859892482808 Q -0.5098648973984212 -0.07659741481851556 -0.5019844514180594 -0.08146868360879611 Q -0.49410400543769756 -0.08633995239907671 -0.486413497446076 -0.08755404076792661 Q -0.4787229894544544 -0.08876812913677645 -0.469725288513973 -0.08126010147645446 Q -0.4228622627822989 -0.04215579074561088 -0.44241072803166615 0.02356916577397128 Q -0.4619591932810334 0.08929412229355349 -0.53829080782764 0.1807707485217813 Q -0.5752052771575563 0.2250094448124816 -0.6088908393915546 0.25508991408913595 Q -0.6425764016255529 0.28517038336579026 -0.6728133268577964 0.29968611338499496 Q -0.7030502520900399 0.3142018434041997 -0.7300880621434619 0.31230867823133124 Q -0.7571258721968839 0.3104155130584628 -0.7803699329597942 0.2910197749359644 Q -0.7893676339002756 0.2835117472756425 -0.7895501142315753 0.2757281347040109 Q -0.7897325945628749 0.26794452213237935 -0.7863199641927505 0.25966310885778787 Q -0.782907333822626 0.25138169558319634 -0.7783687478920347 0.2421319869339681 Q -0.7738301619614433 0.23288227828473979 -0.7730418610322926 0.22241102360922105 Q -0.7722535601031418 0.2119397689337023 -0.7774972472134623 0.19993289080313964 Q -0.7827409343237828 0.18792601267257697 -0.7996116235871854 0.1738484608094733 L -1.0822893948006436 -0.06202874151897503 Q -1.0987851798581927 -0.07579345889623196 -1.111724346731762 -0.07895905332923664 Q -1.1246635136053311 -0.08212464776224127 -1.1348244196808164 -0.0794742552328912 Q -1.144985325756302 -0.07682386270354119 -1.1532729537454274 -0.07070249891278035 Q -1.1615605817345527 -0.06458113512201963 -1.1690971583690644 -0.05974090119174236 Q -1.176633735003576 -0.054900667261465086 -1.1843242429951977 -0.05368657889261519 Q -1.1920147509868193 -0.0524724905237654 -1.2010124519273009 -0.05998051818408734 Q -1.2242565126902112 -0.07937625630658574 -1.2303033773318977 -0.10604413392578144 Q -1.2363502419735841 -0.13271201154497703 -1.2268571875032905 -0.16580911566915324 Q -1.217364133032997 -0.19890621979332934 -1.1933317326282702 -0.23799557649662595 Q -1.1692993322235434 -0.27708493319992256 -1.132384862893627 -0.321323629490623 L -0.9631414060505361 -0.5241468048573084 Q -0.9134007228009031 -0.5837565735879978 -0.8685487095422453 -0.6245516046485704 Q -0.8236966962835877 -0.6653466357091429 -0.7834813453071583 -0.6902963708293293 Q -0.7432659943307289 -0.7152461059495157 -0.7074675757306912 -0.7257570573727192 Q -0.6716691571306536 -0.7362680087959228 -0.6405359497870341 -0.7350911312889443 Q -0.6094027424434145 -0.7339142537819658 -0.5827460513103797 -0.722799928934059 Q -0.5560893601773449 -0.7116856040861521 -0.5335951078261414 -0.6929155349353471 Q -0.5092263344456709 -0.6725812933553084 -0.4898927047558448 -0.6484992526596427 Q -0.4705590750660189 -0.6244172119639768 -0.4604192990199484 -0.5946520243463171 Q -0.45027952297387785 -0.5648868367286571 -0.45114729482372984 -0.52840813709436 Q -0.4520150666735819 -0.49192943746006257 -0.46804909637246733 -0.44680187800276117 L -0.29432434511049355 -0.4271204952877016 M -0.6829936554678009 -0.2433207945741378 Q -0.6548385517415936 -0.27706217310094317 -0.6631311127896801 -0.31132745413175045 Q -0.6714236738377666 -0.34559273516255784 -0.7104137112465194 -0.3781275216906196 L -0.7216608374221213 -0.387512556266022 Q -0.7464045150084452 -0.40815963233190744 -0.7718992439493827 -0.4275255785373093 Q -0.7973939728903201 -0.4468915247427111 -0.8221761429940879 -0.4564416771613844 Q -0.8469583130978557 -0.4659918295800576 -0.8707175757644208 -0.4622874947535013 Q -0.8944768384309858 -0.4585831599269451 -0.9160624179544113 -0.432714769723061 Q -0.9292014663599748 -0.41696879307721857 -0.9319300868671194 -0.4030290530261025 Q -0.9346587073742639 -0.3890893129749865 -0.9299153068527171 -0.3768639478814938 Q -0.9251719063311699 -0.3646385827880012 -0.9149886659960285 -0.3535975141462617 Q -0.904805425660887 -0.34255644550452236 -0.8920586826618716 -0.3319200729857329 L -0.7293502573214992 -0.196149906128244 Q -0.7279127102180922 -0.1955863068765572 -0.7224083147986776 -0.19989646230096447 Q -0.7179044925568099 -0.20376964379951168 -0.7088956051301676 -0.21342280562878313 Q -0.6998867177035253 -0.2230759674580547 -0.6829936554678009 -0.2433207945741378 M 0.0679487151341523 -0.772238436006 L 0.20650360716746155 -0.8367378287910409 L 0.01840105133991049 -1.062635722319762 L 0.0679487151341523 -0.772238436006 M 0.08583034015209948 -0.43532300746960445 Q 0.0530729535371957 -0.42007394975045736 0.02436828127910913 -0.41694480263438893 Q -0.004336390978977436 -0.4138156555183205 -0.027633639275344617 -0.42047478255232534 Q -0.0509308875717118 -0.4271339095863302 -0.06809947268991345 -0.4420319749170007 Q -0.08526805780811511 -0.45693004024767114 -0.09515933849080509 -0.47817807480868985 Q -0.10010497883215008 -0.48880209208919917 -0.09739935522792173 -0.49571685147253847 Q -0.09469373162369339 -0.5026316108558777 -0.08796212874864764 -0.5089968454320138 Q -0.08123052587360188 -0.51536208000815 -0.07230085141090459 -0.5222119547616003 Q -0.06337117694820729 -0.5290618295150507 -0.055868715572614386 -0.5395560775357822 Q -0.04836625419702149 -0.5500503255565137 -0.044118913591698825 -0.5652231118290438 Q -0.03987157298637617 -0.580395898101574 -0.042710706173635746 -0.6038496231025575 L -0.08836578971544612 -0.9865429766172603 Q -0.08959455330730776 -0.9972814701705984 -0.09134231101479681 -1.0050853875740506 Q -0.09309006872228584 -1.0128893049775032 -0.09556288889295836 -1.018201313617758 Q -0.10195100766719564 -1.0319240026050824 -0.11174310506400623 -1.0332901819501963 Q -0.12153520246081675 -1.0346563612953106 -0.13184629397325476 -1.033087964490539 Q -0.14215738548569273 -1.0315195676857676 -0.15143431201361318 -1.0317790785641618 Q -0.16071123854153363 -1.032038589442556 -0.16606901557799075 -1.0435479414964413 Q -0.167511494010883 -1.0466466132032566 -0.1678931000144193 -1.048623351097564 Q -0.17768514212890726 -1.081228084254589 -0.16714121954175215 -1.1106425259889097 Q -0.15659729695459704 -1.1400569677232304 -0.1290793878565844 -1.1671397453633845 Q -0.10156147875857174 -1.1942225230035386 -0.05911882452621142 -1.2199047673602657 Q -0.016676170293851156 -1.2455870117169927 0.03732925088207134 -1.2707273501188296 Q 0.0829239917109239 -1.291952389917102 0.12630157235959977 -1.308105843360989 Q 0.16967915300827552 -1.3242592968048754 0.20847358308545616 -1.3288538065519373 Q 0.2472680131626367 -1.3334483162989992 0.27932319387129695 -1.3235951022367145 Q 0.31137837457995715 -1.3137418881744298 0.33453438387633466 -1.282510925573671 Q 0.33748040212527086 -1.2784963884019043 0.33830467551549503 -1.2767257188551526 Q 0.34180783742394777 -1.2692003732814587 0.3393540782046391 -1.2634800511928292 Q 0.3369003189853305 -1.2577597291041998 0.3317333173094803 -1.2526614353049756 Q 0.3265663156336301 -1.2475631415057518 0.32020487666306996 -1.2427167120914473 Q 0.3138434376925099 -1.237870282677143 0.3090885727117717 -1.2318866541045432 Q 0.3043337077310336 -1.2259030255319434 0.3029102902495052 -1.2179693665098745 Q 0.30148687276797675 -1.2100357074878056 0.3064325131093218 -1.1994116902072962 Q 0.31075994840799864 -1.1901156750868507 0.32154421035753905 -1.1773622664541548 L 0.5739249634825936 -0.8909028312481232 Q 0.5889527151495579 -0.8736616873653967 0.6029577715722167 -0.8667163696493203 Q 0.6169628279948756 -0.8597710519332439 0.6296017327135817 -0.8586529137263124 Q 0.6422406374322875 -0.8575347755193807 0.6532309953705455 -0.8599579764059522 Q 0.664221353308803 -0.8623811772925236 0.6734257763545213 -0.8634344032284051 Q 0.6826301994002395 -0.8644876291642865 0.6896632583031448 -0.8621063734271801 Q 0.6966963172060501 -0.8597251176900738 0.7016419575473951 -0.8491011004095643 Q 0.7274005009919002 -0.7937676770735782 0.6817332013985229 -0.7426168202776711 Q 0.6360659018051456 -0.6914659634817639 0.5280550594533004 -0.6411852866780898 Q 0.4758203078241296 -0.616869221666477 0.43253431925018127 -0.6039899775853856 Q 0.3892483306762329 -0.5911107335042943 0.35548733740954863 -0.5907444481288686 Q 0.3217263441428645 -0.5903781627534428 0.29806657843548623 -0.6036009738588265 Q 0.274406812728108 -0.6168237849642101 0.26163057517963345 -0.6442691629388593 Q 0.25730313988095654 -0.6535651780593049 0.25934476240515303 -0.6601708349213101 Q 0.26138638492934957 -0.6667764917833153 0.2664503524314218 -0.6720961192758833 Q 0.27151431993349395 -0.6774157467684513 0.27821539211696394 -0.6826895782236555 Q 0.28491646430043394 -0.6879634096788598 0.289568295107394 -0.6941683719448035 Q 0.29422012591435415 -0.7003733342107473 0.2954374750483265 -0.7087496606195041 Q 0.2966548241822988 -0.7171259870282609 0.2910909787982857 -0.7290780064688338 Q 0.2863514068044967 -0.7392593563626553 0.2772767530185563 -0.7506542321437117 L 0.2559753588501833 -0.7779011882642795 L 0.07625239985490036 -0.6942374391565267 L 0.07984709855575789 -0.6587477491337173 Q 0.08192301973594489 -0.639247499921349 0.08686866007728988 -0.6286234826408397 Q 0.09160823207107882 -0.6184421327470182 0.09838942658906433 -0.614866439715202 Q 0.10517062110704978 -0.6112907466833858 0.11270740877979446 -0.6112983655356992 Q 0.1202441964525392 -0.6113059843880124 0.12859381541645748 -0.6130384767497136 Q 0.13694343438037576 -0.6147709691114147 0.14427415370556443 -0.6152212553504159 Q 0.1516048730307531 -0.6156715415894171 0.1580769650274045 -0.6127598496376327 Q 0.16454905702405587 -0.6098481576858483 0.1686704239751767 -0.6009948099520905 Q 0.1785617046578667 -0.5797467753910719 0.17890892908192857 -0.5570181128532719 Q 0.17925615350599047 -0.5342894503154717 0.16935334780076597 -0.5121751972147638 Q 0.15945054209554146 -0.4900609441140558 0.1387978007379284 -0.47021347047762563 Q 0.11814505938031539 -0.45036599684119544 0.08583034015209948 -0.43532300746960445 M 1.2909777322057163 -1.315590806954443 Q 1.2966857866197659 -1.3333869113930568 1.296262151417644 -1.3450980016402552 Q 1.2958385162155222 -1.3568090918874534 1.2902502898511177 -1.3627144519235632 Q 1.2846620634867132 -1.368619811959673 1.2767311097212954 -1.3717531231470246 Q 1.2688001559558777 -1.3748864343343763 1.259467096043203 -1.3762589237937461 Q 1.2501340361305284 -1.3776314132531162 1.2422207338318656 -1.3802767623468344 Q 1.234307431533203 -1.3829221114405528 1.2287545081023088 -1.387851547289396 Q 1.2232015846714144 -1.3927809831382394 1.2228309038695577 -1.403028187104538 Q 1.2219836334653138 -1.4264503675989346 1.230504725907255 -1.4475241344466947 Q 1.2390258183491962 -1.468597901294455 1.256759549924281 -1.4848746182940349 Q 1.2744932814993657 -1.5011513352936148 1.3012397998276652 -1.5114022714775537 Q 1.3279863181559648 -1.5216532076614926 1.3636075509911931 -1.5229417647346133 Q 1.3997167459200544 -1.5242479732744894 1.4273780010318635 -1.5159651756337418 Q 1.4550392561436727 -1.5076823779929942 1.473902681591083 -1.4927295210000455 Q 1.4927661070384928 -1.4777766640070964 1.5027875741546155 -1.4573736528960293 Q 1.5128090412707385 -1.4369706417849621 1.5136563116749824 -1.4135484612905655 Q 1.5140799468771042 -1.4018373710433671 1.5081657611076167 -1.3964931257257795 Q 1.5022515753381294 -1.3911488804081917 1.492354261219178 -1.387859252777913 Q 1.4824569471002265 -1.3845696251476343 1.4701021710463538 -1.3816797022772134 Q 1.4577473949924808 -1.3787897794067927 1.4457778117194653 -1.3720049855206833 Q 1.4338082284464497 -1.3652201916345739 1.4232703680085783 -1.3526239812917529 Q 1.412732507570707 -1.340027770948932 1.4062250436369417 -1.3173167426404757 L 1.2723046300515584 -0.9538394744203822 Q 1.2474146552202967 -0.8855122233607075 1.2295289321498108 -0.8396696710294275 Q 1.2116432090793254 -0.7938271186981475 1.1945770937531792 -0.7658481371847469 Q 1.177510978427033 -0.7378691556713461 1.1586512851972635 -0.7257048135341388 Q 1.139791591967494 -0.7135404713969316 1.1129536768176644 -0.7125696407254022 Q 1.0895314963232678 -0.7117223703211584 1.0704770442293066 -0.7252025152998299 Q 1.0514225921353453 -0.7386826602785015 1.0299718655102195 -0.7711315467752275 Q 1.0085211388850936 -0.8035804332719536 0.9814141267864117 -0.8573231372209924 Q 0.9543071146877298 -0.9110658411700312 0.9157557383711583 -0.9907789916400319 L 0.7684585872582677 -1.2942462755915867 Q 0.7584282944087672 -1.3148932677494702 0.7472606674133361 -1.3264600067748735 Q 0.7360930404179048 -1.3380267458002766 0.7248844242433403 -1.3439730950155198 Q 0.713675808068776 -1.349919444230763 0.7035755020821411 -1.3522413806772666 Q 0.6934751960955062 -1.3545633171237705 0.685553068063466 -1.3574526472643054 Q 0.6776309400314259 -1.3603419774048402 0.6727923082742264 -1.3657858525474498 Q 0.667953676517027 -1.371229727690059 0.6675300413149051 -1.382940817937257 Q 0.6653412594372752 -1.4434481175477818 0.7270647320642425 -1.4727982272224556 Q 0.7887882046912098 -1.5021483368971293 0.9078509555377259 -1.5064552947853689 Q 0.9654304825864508 -1.5085381678624683 1.0105612900019045 -1.5035746145398865 Q 1.0556920974173583 -1.498611061217305 1.086692795071957 -1.4858073582209494 Q 1.1176934927265556 -1.473003655224594 1.1343377510402377 -1.4518630147274538 Q 1.1509820093539198 -1.4307223742303137 1.1520764002927346 -1.4004687244250515 Q 1.1524294296278363 -1.3907094825523862 1.1477439748258096 -1.3851653848548695 Q 1.1430585200237828 -1.3796212871573528 1.1358449974198144 -1.3764287425942272 Q 1.128631474815846 -1.3732361980311012 1.1199187629974676 -1.3709666232549766 Q 1.111206051179089 -1.368697048478852 1.1040101800418758 -1.3650165418220932 Q 1.0968143089046625 -1.3613360351653343 1.0921376798360132 -1.355547956421001 Q 1.0874610507673639 -1.3497598776766675 1.0878493830359757 -1.3390247116167358 Q 1.0880612006370367 -1.3331691664931367 1.0900426656994568 -1.3256675341754638 Q 1.092024130761877 -1.3181659018577911 1.0962808568460447 -1.3085478717191665 L 1.1833672269039317 -1.1162578748136944 Q 1.188652831575631 -1.1052112613276803 1.1943293152738108 -1.0968660908234042 Q 1.2000057989719908 -1.088520920319128 1.2068372682828563 -1.088768040853699 Q 1.2122048513128223 -1.088962206988005 1.2180396054819118 -1.0965022817269423 Q 1.2238743596510013 -1.1040423564658797 1.230035073225174 -1.122832036558515 L 1.2909777322057163 -1.315590806954443 M 2.0086928235191985 -0.7960495784674648 Q 2.00224006262494 -0.7750457812031083 2.004256208065291 -0.7616562687066635 Q 2.0062723535056426 -0.7482667562102187 2.012809741486377 -0.7396178881983677 Q 2.0193471294671115 -0.7309690201865169 2.0284319280911163 -0.7256239765176009 Q 2.03751672671512 -0.720278932848685 2.0450578775016286 -0.7148973221890674 Q 2.0525990282881366 -0.7095157115294497 2.0566943966833047 -0.702894089262631 Q 2.060789765078473 -0.6962724669958121 2.0573482926015347 -0.6850704417881552 Q 2.0394239567841494 -0.6267265604982761 1.9712546661900752 -0.6193197917691112 Q 1.9030853755960009 -0.6119130230399463 1.7891981193181565 -0.6469013265554822 Q 1.7341214953805106 -0.6638218995670938 1.6933496025445967 -0.6832436525647267 Q 1.6525777097086827 -0.7026654055623596 1.627492517630107 -0.7249299784051446 Q 1.602407325551531 -0.7471945512479297 1.5936906773104211 -0.7728586758248064 Q 1.5849740290693113 -0.798522800401683 1.5938644996347342 -0.8274613655214631 Q 1.5973059721116722 -0.8386633907291199 1.604412628924161 -0.8418435405190008 Q 1.6115192857366498 -0.8450236903088817 1.6204760998931977 -0.8450814140712024 Q 1.6294329140497459 -0.8451391378335232 1.6397182840139815 -0.8445333020110672 Q 1.650003653978217 -0.8439274661886113 1.6599642309405387 -0.8472524473031652 Q 1.6699248079028601 -0.8505774284177192 1.6789672929836266 -0.860058717386907 Q 1.688009778064393 -0.8695400063560949 1.6944625389586516 -0.8905438036204514 L 1.802582132609119 -1.2424740955610027 Q 1.8088914988168385 -1.2630111417750403 1.8068036560332177 -1.2761672787463256 Q 1.8047158132495968 -1.289323415717611 1.7983401034507522 -1.2976672108610328 Q 1.7919643936519076 -1.3060110060044545 1.7831129705530628 -1.3112843523301008 Q 1.774261547454218 -1.3165576986557472 1.7668820748496 -1.3216342364469358 Q 1.7595026022449818 -1.3267107742381246 1.7554072338498137 -1.3333323965049433 Q 1.7513118654546456 -1.339954018771762 1.7547533379315836 -1.3511560439794188 Q 1.7636438084970067 -1.380094609099199 1.7851942811833643 -1.3962047035258758 Q 1.806744753869722 -1.4123147979525528 1.8400034430810255 -1.4166550349779525 Q 1.873262132292329 -1.4209952720033525 1.9179056816647981 -1.4141757973643334 Q 1.9625492310372672 -1.4073563227253145 2.0176258549749133 -1.3904357497137028 Q 2.0745694831138355 -1.372941597955935 2.116508253575547 -1.3531613582419544 Q 2.1584470240372586 -1.3333811185279738 2.1839989671661533 -1.3109731509986495 Q 2.2095509102950484 -1.2885651834693255 2.2183392558794277 -1.263134434417608 Q 2.227127601463807 -1.2377036853658911 2.218237130898384 -1.208765120246111 Q 2.214795658421446 -1.1975630950384542 2.2076890016089576 -1.1943829452485735 Q 2.2005823447964685 -1.1912027954586923 2.1916255306399206 -1.1911450716963716 Q 2.1826687164833727 -1.191087347934051 2.1721499709939773 -1.1917648810997765 Q 2.1616312255045824 -1.1924424142655021 2.151670648542261 -1.189117433150948 Q 2.141710071579939 -1.185792452036394 2.132595889155903 -1.1760777875420467 Q 2.123481706731867 -1.1663631230476994 2.1171723405241476 -1.1458260768336619 L 2.0086928235191985 -0.7960495784674648 M 2.899623047059051 -0.6854915060663327 Q 2.915132116921318 -0.6959199273462348 2.922057829495836 -0.7053731599625233 Q 2.9289835420703545 -0.7148263925788116 2.9282579524204504 -0.7229242361631161 Q 2.9275323627705463 -0.7310220797474205 2.923250207193922 -0.7383964143101835 Q 2.9189680516172976 -0.7457707488729464 2.912494242213186 -0.7526322010843155 Q 2.906020432809075 -0.7594936532956844 2.901449705875179 -0.7664741031661021 Q 2.8968789789412828 -0.7734545530365196 2.8955762465768355 -0.7807646272361334 Q 2.8942735142123883 -0.7880747014357471 2.900333512715092 -0.7963462799749995 Q 2.9141849378641282 -0.8152527452075765 2.933933029702733 -0.8265099888440937 Q 2.9536811215413374 -0.8377672324806109 2.977686080936979 -0.8395501167379775 Q 3.001691040332621 -0.8413330009953441 3.029034496545948 -0.8328010998213324 Q 3.0563779527592754 -0.8242691986473207 3.0851315353004862 -0.8032034895664945 Q 3.114279002534042 -0.7818492091283966 3.130853689517222 -0.7582054039666257 Q 3.147428376500401 -0.7345615988048548 3.1529647690306613 -0.7111358627521187 Q 3.158501161560921 -0.6877101266993828 3.1537206880314397 -0.665487171486545 Q 3.148940214501959 -0.6432642162737072 3.1350887893529222 -0.6243577510411302 Q 3.128163076778404 -0.6149045184248418 3.1202095188727355 -0.6143758711211105 Q 3.112255960967067 -0.6138472238173791 3.1024498966303575 -0.6173996284873748 Q 3.092643832293648 -0.6209520331573704 3.0811569158524836 -0.6263411793060691 Q 3.0696699994113192 -0.631730325454768 3.056071454458155 -0.6338241083860682 Q 3.0424729095049905 -0.6359178913173684 3.02639621999543 -0.6325636295473454 Q 3.01031953048587 -0.6292093677773225 2.991136977666196 -0.6154192422885101 L 2.660766309032896 -0.4131678566457705 Q 2.5988859189580764 -0.37497176510932095 2.5564376807166402 -0.35008028535823954 Q 2.5139894424752036 -0.32518880560715807 2.4832557128512165 -0.31380840305486724 Q 2.452521983227229 -0.3024280005025764 2.430182110983705 -0.3045702788446885 Q 2.4078422387401814 -0.3067125571868006 2.386178580661187 -0.32258398183673825 Q 2.36727211542861 -0.3364354069857747 2.360673066480363 -0.35882377464011045 Q 2.3540740175321155 -0.3812121422944462 2.3573506550942516 -0.4199720127007013 Q 2.360627292656388 -0.4587318831069564 2.3726622230150207 -0.5177083935491229 Q 2.3846971533736534 -0.5766849039912895 2.403846416139527 -0.6631354720014444 L 2.47632968477082 -0.9925820062424817 Q 2.481254443978937 -1.0150019038014921 2.479658979000493 -1.0310006486239285 Q 2.4780635140220495 -1.0469993934463646 2.4729525360888096 -1.058612749985465 Q 2.4678415581555697 -1.0702261065245655 2.461354064427484 -1.0783081851565326 Q 2.454866570699398 -1.0863902637884997 2.4504401294441376 -1.09356765600509 Q 2.446013688188877 -1.1007450482216803 2.4455903542202195 -1.1080161500777317 Q 2.4451670202515623 -1.1152872519337835 2.45209273282608 -1.1247404845500721 Q 2.4878755811277578 -1.1735821864008957 2.554505474422709 -1.158361367416663 Q 2.6211353677176605 -1.1431405484324306 2.7172432326499267 -1.072729137258162 Q 2.763721626346678 -1.038677717100114 2.796063304719284 -1.0068117088844653 Q 2.82840498309189 -0.9749457006688165 2.8447984926812344 -0.9456842771074994 Q 2.8611920022705783 -0.9164228535461822 2.8611518293732168 -0.8895164156254873 Q 2.8611116564758547 -0.8626099777047924 2.8432202323250158 -0.8381891267793804 Q 2.837448805179584 -0.8303114329324734 2.830335673326143 -0.8288644148893904 Q 2.8232225414727017 -0.8274173968463074 2.815582842943892 -0.8293826590513094 Q 2.8079431444150824 -0.8313479212563111 2.7996989345237795 -0.8349666669178183 Q 2.7914547246324766 -0.8385854125793255 2.7835264547463954 -0.840156790091982 Q 2.775598184860314 -0.8417281676046384 2.7683407673282368 -0.8400842072153827 Q 2.76108334979616 -0.8384402468261271 2.754734779936185 -0.8297747835945294 Q 2.7512719236489263 -0.8250481672863851 2.748177664034425 -0.8179329548045816 Q 2.7450834044199244 -0.810817742322778 2.742463054813255 -0.8006314776176982 L 2.691631601449256 -0.5957518980870158 Q 2.688933307155463 -0.5838068365903568 2.6882160400190087 -0.5737395695443256 Q 2.687498772882555 -0.5636723024982944 2.69301315857539 -0.5596323034964921 Q 2.6973458901911886 -0.5564580185665047 2.7065980192045793 -0.55875914698579 Q 2.71585014821797 -0.5610602754050753 2.732330245487126 -0.5719878947123964 L 2.899623047059051 -0.6854915060663327 M 3.1408786569962936 0.16705395962490382 Q 3.1227971237111016 0.1795381807354558 3.1160809530710307 0.1912956013395915 Q 3.1093647824309603 0.20305302194372715 3.109134916815014 0.21389218802307458 Q 3.1089050511990686 0.224731354102422 3.112721961796749 0.2345565386477953 Q 3.11653887239443 0.24438172319316853 3.119121689733958 0.25327889932198566 Q 3.1217045070734866 0.2621760754508028 3.1208146082697557 0.2699108025859828 Q 3.1199247094660247 0.2776455297211629 3.1102812250472556 0.28430378098012393 Q 3.0600547436994994 0.31898217295387943 3.00196608546418 0.2825456502393426 Q 2.943877427228861 0.2461091275248058 2.8761852060960904 0.14806703593398599 Q 2.843448804072865 0.10065323754170427 2.8234886811336337 0.06014218686198125 Q 2.8035285581944023 0.019631136182258244 2.797640999954813 -0.013388777861636031 Q 2.7917534417152234 -0.046408691905530305 2.8008185930872393 -0.07195179816649884 Q 2.8098837444592553 -0.09749490442746739 2.834796079207742 -0.1146953868464501 Q 2.844439563626511 -0.12135363810541115 2.8519877136892036 -0.11944488082182203 Q 2.8595358637518955 -0.11753612353823292 2.8666008038075224 -0.11203026539639233 Q 2.8736657438631497 -0.1065244072545517 2.8813620594007556 -0.09967439999246994 Q 2.8890583749383616 -0.09282439273038817 2.8989359979494633 -0.08926052453907786 Q 2.9088136209605646 -0.08569665634776756 2.9217862310088143 -0.08753316539734403 Q 2.934758841057064 -0.08936967444692051 2.952840374342256 -0.10185389555747248 L 3.2558065098319204 -0.3110339559431655 Q 3.2734862312663306 -0.32324074991792745 3.2800014959810104 -0.33485945695416813 Q 3.2865167606956898 -0.34647816399040876 3.28668443395414 -0.35697771057647015 Q 3.2868521072125896 -0.36747725716253155 3.283173910182804 -0.37710153578251376 Q 3.2794957131530182 -0.386725814402496 3.276850703455994 -0.3952833710380271 Q 3.274205693758969 -0.4038409276735581 3.2750955925627006 -0.41157565480873815 Q 3.2759854913664315 -0.41931038194391823 3.2856289757852 -0.42596863320287925 Q 3.3105413105336874 -0.443169115621862 3.337438319806665 -0.4424557380141024 Q 3.3643353290796423 -0.44174236040634274 3.3931261628138087 -0.42453579310248096 Q 3.4219169965479748 -0.40732922579861924 3.4527260394583212 -0.37430870778522735 Q 3.483535082368668 -0.34128818977183556 3.5162714843918934 -0.29387439137955385 Q 3.5501175949582784 -0.2448533455841439 3.570771285736985 -0.20333776527746583 Q 3.5914249765156914 -0.1618221849707877 3.597589961891071 -0.12840045907611136 Q 3.6037549472664505 -0.09497873318143502 3.5948907018198257 -0.06957434048836147 Q 3.586026456373201 -0.04416994779528799 3.5611141216247137 -0.026969465376305235 Q 3.551470637205945 -0.020311214117344212 3.5439224871432526 -0.02221997140093329 Q 3.5363743370805607 -0.024128728684522427 3.5293093970249334 -0.029634586826363052 Q 3.5222444569693065 -0.03514044496820368 3.5144094278638054 -0.042191358155676484 Q 3.5065743987583042 -0.04924227134314929 3.496696775747203 -0.052806139534459506 Q 3.4868191527361017 -0.05637000772576983 3.473645636762461 -0.05439478510829837 Q 3.46047212078882 -0.052419562490826854 3.44279239935441 -0.04021276851606492 L 3.1408786569962936 0.16705395962490382 M 3.4299098344328756 0.5418371175194538 L 3.469315092504797 0.6895017897071043 L 3.7244985732400577 0.5435777650593199 L 3.4299098344328756 0.5418371175194538 M 3.0950228968774773 0.5008188587325143 Q 3.0857066377806013 0.4659077221769676 3.0876201659580382 0.4370964712316803 Q 3.089533694135475 0.40828522028639297 3.1001452106479404 0.3865021656717785 Q 3.1107567271604055 0.364719111057164 3.1284150296032447 0.3504048866494259 Q 3.1460733320460834 0.33609066224168777 3.1687183935956273 0.33004768336803847 Q 3.1800409243703993 0.3270261939312138 3.1863793809095733 0.3308937855743735 Q 3.1927178374487473 0.3347613772175332 3.197814587220059 0.34249790293940596 Q 3.20291133699137 0.3502344286612787 3.2081028439164707 0.36021982429662225 Q 3.2132943508415717 0.37020521993196576 3.2223229823881967 0.3794193384795088 Q 3.2313516139348217 0.3886334570270519 3.245553834024623 0.39545623432155214 Q 3.259756054114424 0.4022790116160524 3.2833460023307524 0.4035644052630376 L 3.6681453557698274 0.4251988008036792 Q 3.6789338379501597 0.4258574023557661 3.6869228256762114 0.4254942784692039 Q 3.694911813402263 0.4251311545826417 3.700573078789649 0.4236204098642294 Q 3.7151980143737293 0.41971765267499755 3.7182472859610822 0.4103126773843228 Q 3.7212965575484356 0.400907702093648 3.7215463346815074 0.39048100136432423 Q 3.7217961118145793 0.3800543006350004 3.7236659531128935 0.3709640638273282 Q 3.7255357944112077 0.36187382701965604 3.7378018694172104 0.35860054679642933 Q 3.741104274226519 0.3577192790440221 3.743117258082182 0.3576874695868335 Q 3.7769284879916616 0.3537184086121176 3.8040594119462128 0.3692199134241682 Q 3.8311903359007644 0.38472141823621875 3.853071503758051 0.41653221292974607 Q 3.8749526716153384 0.4483430076232733 3.8928575996004127 0.4946071419752271 Q 3.910762527585487 0.5408712763271809 3.9261217655560126 0.5984274744322715 Q 3.9390889910557183 0.6470200023406676 3.947447814846099 0.6925466827153397 Q 3.9558066386364796 0.7380733630900118 3.9535803856293708 0.7770754287068153 Q 3.951354132622261 0.8160774943236186 3.936073280357201 0.8459290603072561 Q 3.9207924280921405 0.8757806262908938 3.886008529365348 0.8931488208104219 Q 3.881542598995595 0.8953513189736632 3.879655510533133 0.8958549005464673 Q 3.8716353845676696 0.8979951222308847 3.8664293153495284 0.8945833979747462 Q 3.8612232461313867 0.8911716737186077 3.857101850048495 0.885196341065996 Q 3.852980453965603 0.8792210084133841 3.8493149252697325 0.8721132884397397 Q 3.8456493965738616 0.8650055684660954 3.840584456259739 0.8592820265998856 Q 3.8355195159456157 0.8535584847336759 3.827954586149397 0.8507762374435426 Q 3.820389656353178 0.8479939901534091 3.809067125578406 0.8510154795902338 Q 3.799159911150481 0.8536592828474554 3.7847244898739785 0.8620597798636287 L 3.4587182850597835 1.0607429623154239 Q 3.4391251799686993 1.0725412925124718 3.4298487849423327 1.0851241196548072 Q 3.4205723899159657 1.097706946797143 3.417271998759987 1.1099584595101049 Q 3.413971607604009 1.1222099722230667 3.4144453933729544 1.1334543217904207 Q 3.4149191791419002 1.1446986713577745 3.4143546635258257 1.1539459417980598 Q 3.413790147909751 1.1631932122383448 3.410221390021 1.1697046071387258 Q 3.4066526321322486 1.1762160020391073 3.3953301013574766 1.1792374914759318 Q 3.3363585869055394 1.1949744156260602 3.293934728765947 1.1411030070343182 Q 3.2515108706263542 1.0872315984425762 3.220792394685304 0.9721192022323951 Q 3.2059367382875825 0.9164500925897665 3.2007862333704975 0.8715833562027347 Q 3.195635728453413 0.826716619815703 3.20114982397679 0.7934069578256975 Q 3.206663919500167 0.760097295835692 3.2238020644238308 0.7390994093841421 Q 3.2409402093474946 0.7181015229325922 3.2701900805156554 0.7102960085541286 Q 3.2800972949435807 0.707652205296907 3.286246908392953 0.7108121387666433 Q 3.292396521842326 0.7139720722363798 3.2967538039830253 0.719884457192391 Q 3.301111086123725 0.7257968421484023 3.3051383962706042 0.7333133865410617 Q 3.3091657064174838 0.740829930933721 3.3144665327894147 0.7464905251033302 Q 3.3197673591613452 0.7521511192729395 3.3278040610731794 0.7548074711698718 Q 3.335840762985014 0.7574638230668042 3.3485786101066326 0.7540646474503765 Q 3.359429368765789 0.7511690534067528 3.3722294923662313 0.7442156821946145 L 3.402767442052484 0.7279805462138957 L 3.351653912412867 0.5364410672740042 L 3.316080146998573 0.5338053186301032 Q 3.2965161664935705 0.5324563060687407 3.285193635718799 0.5354777955055654 Q 3.2743428770596426 0.538373389549189 3.2696417318498585 0.5444289170625491 Q 3.2649405866400745 0.5504844445759092 3.263636603393388 0.5579075742503328 Q 3.262332620146702 0.5653307039247564 3.2625857533686573 0.573854411463024 Q 3.262838886590613 0.5823781190012915 3.262006675459542 0.5896753532825141 Q 3.261174464328471 0.5969725875637367 3.2571809772921103 0.6028392719872953 Q 3.2531874902557494 0.6087059564108537 3.2437520479434396 0.6112238642748743 Q 3.2211069863938957 0.6172668431485235 3.1986646590094177 0.6136537271628728 Q 3.1762223316249396 0.6100406111772221 3.1561686606223973 0.5964407571206743 Q 3.1361149896198555 0.5828409030641266 3.1201641251005037 0.5590495631182861 Q 3.1042132605811523 0.5352582231724455 3.0950228968774773 0.5008188587325143" fill="#ffffff" fill-rule="nonzero"></path></g><g transform="matrix(1,0,0,1,0,0)" clip-path="url(#SvgjsClipPath80607)"><g clip-path="url(#SvgjsClipPath806058d86f287-0352-41cf-a316-a036a3a4fa74)"><path d=" M 0.2062546209284535 1.8947424976113862 L 1.0853015617497208 1.663445489629478 L 2.3379138747975228 2.228575263607439 C 2.3615759728007872 2.1642932306985716 2.3750830870776505 2.095180186114037 2.3758718236777594 2.022912195129068 L 0.2062546209284535 1.0456675475942534 L 1.0853015617497208 0.8143705396123452 L 2.3761675999028 1.396753926717687 L 2.3761675999028 1.188330280138934 C 2.3761675999028 1.0253575801414514 2.3114911986938775 0.8690891412448936 2.196237063002978 0.7538350055539939 L 1.6228255547238741 0.18022631312486262 C 1.3827538520657554 -0.059845389533256084 0.9935123399120581 -0.059845389533256084 0.7535392293289531 0.18022631312486262 L 0.179930536899822 0.7537364134789805 C 0.06467640120892232 0.8689905491698802 0 1.025258988066438 0 1.1882316880639205 L 0 2.016898078553238 C 0 2.3563505928250668 0.27517048136296063 2.631521074188027 0.6146229956347893 2.631521074188027 L 1.7614460121929971 2.631521074188027 C 1.7853052943462886 2.631521074188027 1.8087702081995258 2.629845008912796 1.8320379379027356 2.6271830228874284 L 0.2062546209284535 1.8947424976113862 Z" fill="#ffffff" transform="matrix(1,0,0,1,0,0)" fill-rule="nonzero"></path></g></g></g><defs><clipPath id="SvgjsClipPath80607"><path d=" M 0 0 h 2.3760690078277866 v 2.631422482113013 h -2.3760690078277866 Z"></path></clipPath><clipPath id="SvgjsClipPath806058d86f287-0352-41cf-a316-a036a3a4fa74"><path d=" M 0 0 L 2.3760690078277866 0 L 2.3760690078277866 2.631422482113013 L 0 2.631422482113013 Z"></path></clipPath></defs></svg>